<?xml version="1.0" standalone="no"?>
<!DOCTYPE svg PUBLIC "-//W3C//DTD SVG 20010904//EN"
 "http://www.w3.org/TR/2001/REC-SVG-20010904/DTD/svg10.dtd">
<svg version="1.0" xmlns="http://www.w3.org/2000/svg"
 width="512.000000pt" height="512.000000pt" viewBox="0 0 512.000000 512.000000"
 preserveAspectRatio="xMidYMid meet">
<metadata>
Created by potrace 1.14, written by Peter Selinger 2001-2017
</metadata>
<g transform="translate(0.000000,512.000000) scale(0.100000,-0.100000)"
fill="#000000" stroke="none">
<path d="M3268 4635 c-2 -1 -34 -5 -72 -9 -77 -7 -130 -18 -226 -48 -464 -141
-809 -542 -888 -1033 -9 -53 -8 -393 1 -475 l7 -66 -125 -124 -125 -125 76
-76 75 -76 -678 -679 -679 -679 -2 -301 -1 -301 302 -2 302 -1 77 77 76 78
-74 219 c-41 121 -72 221 -70 223 3 3 252 -76 296 -94 8 -3 20 -7 25 -9 6 -1
36 -11 67 -22 l57 -19 75 76 76 76 0 151 0 150 150 -1 150 -1 222 223 c123
123 227 223 233 223 6 0 42 -32 80 -70 l70 -70 76 76 76 76 68 -21 c37 -12 80
-23 94 -26 14 -3 37 -7 51 -10 87 -20 325 -27 430 -12 262 36 550 184 736 379
56 58 164 195 164 208 0 5 6 15 13 22 29 29 158 328 142 328 -2 0 0 11 5 26
34 88 45 318 26 544 -27 325 -151 597 -375 821 -179 178 -435 315 -661 353
-19 3 -48 8 -65 12 -30 5 -252 14 -257 9z m491 -719 c106 -24 230 -126 280
-229 47 -97 29 -184 -59 -296 -174 -220 -528 -204 -681 29 -60 92 -68 125 -51
195 35 140 158 261 302 298 51 13 156 15 209 3z"/>
</g>
</svg>
